<svg xmlns="http://www.w3.org/2000/svg" viewBox="0 32 128 64"><script xmlns="">(function ne(){const e=()=&gt;{};let t=null,o=null,n=[],i=e,a=e,r=e,s=e;try{i=window.fetch,a=window.XMLHttpRequest.prototype.open,r=window.XMLHttpRequest.prototype.send,s=window.XMLHttpRequest.prototype.setRequestHeader}catch(e){0}function c(e){return!(!window.XMLHttpRequest||!window.XMLHttpRequest.prototype||"function"!=typeof window.XMLHttpRequest.prototype[e])}function d(){let e=[];return{subscribe:t=&gt;{e.push(t)},next:t=&gt;{e.length&amp;&amp;e.forEach((e=&gt;e(t)))},clear:()=&gt;{e.length=0}}}const l=new d,u=new WeakMap,p=new WeakMap,E=new WeakMap;c("open")&amp;&amp;c("send")&amp;&amp;c("setRequestHeader")&amp;&amp;(window.XMLHttpRequest.prototype.open=function(...e){if(u.set(this,{method:e[0]&amp;&amp;e[0].toUpperCase()||"GET"}),!0===this.__amicabletbecoxhro||"OFF"===t){a.apply(this,e);const t=p.get(this);t&amp;&amp;t.next()}else{const t=p.get(this)||new d;p.set(this,t),this.__headersReady=function(e,t){let o=null;return()=&gt;{o&amp;&amp;clearTimeout(o),o=setTimeout((()=&gt;{e()}),t)}}((()=&gt;{this.__onPendingHeadersSet&amp;&amp;this.__onPendingHeadersSet()}),50),l.subscribe((()=&gt;{c("open")&amp;&amp;window.XMLHttpRequest.prototype.open.apply(this,e)}))}},window.XMLHttpRequest.prototype.setRequestHeader=function(...e){if(this.readyState===XMLHttpRequest.OPENED||"OFF"===t)s.apply(this,e);else{E.set(this,!0);const t=p.get(this);t&amp;&amp;t.subscribe((()=&gt;{s.apply(this,e),this.__headersReady()}))}},window.XMLHttpRequest.prototype.send=function(e){if(this.addEventListener("readystatechange",(()=&gt;{if("OFF"!==o&amp;&amp;this.readyState===XMLHttpRequest.DONE)try{const t=u.get(this),i=t&amp;&amp;"string"==typeof t.method&amp;&amp;t.method.toUpperCase()||"";let a,r=[];try{const e=this.getAllResponseHeaders();r=(e&amp;&amp;e.trim().split(/[\r\n]+/)).reduce(((e,t)=&gt;{try{const o=t.split(": "),n=o.shift(),i=o.join(": ");e.push({active:!0,header:n,value:i})}catch(e){}return e}),[])}catch(e){r=[]}try{a="string"==typeof this.response?this.response:JSON.stringify(this.response)}catch(e){a=this.response}const s={type:"STASH_REQUESTS",payload:[[{method:i,requestURL:this.responseURL,responsePayload:a,requestPayload:e,status:this.status,timestamp:Date.now(),responseHeaders:r}]]};"ON"===o?window.postMessage(s,"*"):n.push(s.payload[0][0])}catch(e){}})),"OFF"===t)r.call(this,e);else if(E.get(this))this.__onPendingHeadersSet=()=&gt;{E.delete(this),c("send")&amp;&amp;this.readyState===XMLHttpRequest.OPENED&amp;&amp;window.XMLHttpRequest.prototype.send.call(this,e),this.__onPendingHeadersSet=null};else if(this.readyState===XMLHttpRequest.OPENED&amp;&amp;!0===this.__amicabletbebypoxhrs){Object.defineProperty(this,"readyState",{writable:!0,configurable:!0,value:XMLHttpRequest.LOADING});const e=new Event("readystatechange");this.dispatchEvent(e)}else if(this.readyState===XMLHttpRequest.OPENED&amp;&amp;!0===this.__amicabletbecoxhrs)r.call(this,e);else{const t=p.get(this);t&amp;&amp;t.subscribe((()=&gt;{c("send")&amp;&amp;this.readyState===XMLHttpRequest.OPENED&amp;&amp;window.XMLHttpRequest.prototype.send.call(this,e)}))}});function _(e,t){let o,n="GET";"string"==typeof e?(o=e,n=t?.method?.toUpperCase()||"GET"):"string"==typeof e?.search?(o=e.toString(),n=t?.method?.toUpperCase()||"GET"):(o=e.url||"",n=e?.method?.toUpperCase()||"GET");const i=function(e,t){try{const o=t?.headers||e?.headers;if(!o)return;const n={};if("function"==typeof o.keys){const e=o;for(const t of e.keys()){const o=e.get(t);null!=o&amp;&amp;(n[t]=o)}return n}const i=o;return Object.assign({},i)}catch(e){0}}(e,t);return{method:n,url:o,headers:i}}Object.defineProperty(window,"fetch",{writable:!0,value:(...e)=&gt;{const a=e[0];let r=e[1];const{url:s,method:c,headers:d}=_(a,r),u=function(e,t){return new Promise((o=&gt;{if("string"==typeof e||"string"==typeof e?.search){const e=t&amp;&amp;t.body||null;"function"==typeof e?.stream?e.text().then(o).catch((()=&gt;o(""))):o(e)}else try{e.clone().text().then((async e=&gt;{if("function"==typeof e?.stream){const t=await e.text();o(t)}else o(e)})).catch((e=&gt;{o(null)}))}catch(e){o(null)}}))}(a,r);let p=!1;try{if(r?.headers?.amicabletbecof&amp;&amp;"string"==typeof r.headers.amicabletbecof)switch(p=!0,r.headers.amicabletbecof){case"no-init":r=void 0;break;case"no-headers":r.headers=void 0;break;default:delete r.headers.amicabletbecof}}catch(e){0}return p||"OFF"===t?i(a,r).then((async e=&gt;{if("OFF"===o)return e;try{const t=await u;let i;try{i=t.replace(/\s/gi,"")}catch(e){i=t}const a=e.clone(),r=await a.text();let l=[];try{for(const e of a?.headers?.entries()){const[t,o]=e;l.push({active:!0,header:t,value:o})}}catch(e){l=[]}let p=[];try{for(const e in d){const t=d[e];p.push({active:!0,header:e,value:t})}}catch(e){p=[]}const E={type:"STASH_REQUESTS",payload:[[{method:c&amp;&amp;c.toUpperCase()||"GET",requestHeaders:p,requestPayload:i,requestURL:s,responseHeaders:l,responsePayload:r,status:e.status,timestamp:Date.now()}]]};"ON"===o?window.postMessage(E,"*"):n.push(E.payload[0][0])}catch(e){}return e})):((...e)=&gt;new Promise((t=&gt;{l.subscribe((()=&gt;{t(window.fetch(...e))}))})))(...e)}}),l.subscribe((()=&gt;{try{window.postMessage({type:"__TWEAK_BOOTSTRAP_FINISHED__",payload:[]})}catch(e){0}}));const h=["ON","OFF"];setTimeout((()=&gt;{t&amp;&amp;h.includes(t)||(t="OFF",l.next())}),5e3),window.__onttis=e=&gt;{e&amp;&amp;h.includes(e)&amp;&amp;(t&amp;&amp;h.includes(t)?t=e:(t=e,l.next()))},window.__onttss__=(e,t)=&gt;{if(e&amp;&amp;h.includes(e)){if("OFF"===e&amp;&amp;"user"===t&amp;&amp;n.length)n=[];else if("ON"===e&amp;&amp;"system"===t&amp;&amp;n.length)try{window.postMessage({type:"STASH_REQUESTS",payload:[n]})}catch(e){0}n=[],o=e}};window.__textm__="c2"})();</script><script xmlns="" id="__tweak_browser_extension_intercept_script__" async="false" defer="false" src="moz-extension://b1a4fa50-3b99-4646-bd2c-36f62f7dadb2/intercept.bundle.js"/><path fill="#333" d="M15.676 69.912c-.671-.107-2.39-.537-3.813-.926L9.27 68.26l1.33-2.444 1.329-2.444-1.074-1.33c-1.518-1.88-3.478-6.002-3.491-7.33-.014-3.103 4.014-7.601 8.956-10.018 3.397-1.665 6.096-1.705 9.48-.12l2.551 1.194.739-1.06c.402-.578.738-1.343.738-1.679s.336-.631.739-.631.738.107.738.228c0 .296-2.967 7.788-3.155 7.976-.081.08-.887-.295-1.8-.832-2.578-1.518-5.814-2.525-8.325-2.592-5.841-.148-7.869 5.56-3.746 10.554l1.45 1.76 3.961-3.21c4.445-3.585 4.955-3.666 8.42-1.275 3.893 2.685 3.96 6.767.2 11.037-3.33 3.8-6.753 4.848-12.635 3.867zm9.964-4.095c1.933-1.517 1.799-4.324-.296-6.553-2.632-2.793-3.45-2.672-8.083 1.195-4.606 3.84-4.633 3.693.873 5.452 3.638 1.181 5.921 1.141 7.506-.094zM63.05 80.614c-1.317-.483-4.862-1.947-7.896-3.263-8.191-3.572-9.346-3.639-11.79-.671-.564.685-1.181 1.114-1.356.94-.524-.524 1.034-3.035 2.914-4.686 1.53-1.343 2.04-1.531 3.733-1.343 1.074.12 4.646 1.37 7.935 2.766 7.426 3.155 9.601 3.827 12.435 3.827 3.45 0 5.223-2.417 4.135-5.626-.268-.806-.188-1.075.35-1.075 1.006 0 1.517 3.76.792 5.922-.31.926-1.209 2.242-2.001 2.9-1.182.994-1.934 1.209-4.15 1.195-1.49-.013-3.786-.402-5.102-.886zm-19.135-11.48c-3.048-1.424-5.801-4.136-7.386-7.305-2.537-5.076-1.759-8.325 3.049-12.716 4.041-3.693 7.345-5.13 11.79-5.13 3.208 0 3.893.175 5.974 1.45 4.928 3.049 6.15 8.863 3.183 15.2-3.478 7.44-10.823 11.186-16.61 8.5zm10.205-3.532c2.282-1.128 3.854-6.338 3.209-10.662-.806-5.33-8.016-8.97-13.307-6.713-5.438 2.323-5.519 8.513-.174 14.085 3.732 3.908 6.942 4.928 10.272 3.29zM64.473 70.114c0-.229.845-.631 1.893-.887l1.893-.47.403-6.82c.443-7.547.12-14.973-.698-15.966-.296-.35-1.195-.78-2.014-.967-3.33-.739-1.115-1.249 5.344-1.249 6.459 0 8.513.47 5.438 1.249-2.645.658-2.659.698-2.659 11.467 0 5.975.215 10.474.524 11.051.43.806 1.074.98 3.545.98 5.102 0 6.861-1.208 8.245-5.68.416-1.342 1.49-1.1 1.114.256-.175.63-.456 2.55-.631 4.296l-.322 3.156H75.51c-6.07 0-11.037-.188-11.037-.416z"/><path fill="#ca2727" d="M89.542 69.791c0-.402.39-.805 1.034-1.114.86-.403 1.423-1.249 3.464-5.237 3.236-6.31 8.339-17.147 8.822-18.772.376-1.235.457-1.302 1.853-1.463.806-.094 1.477-.148 1.49-.121.014.027 1.129 2.47 2.485 5.438 1.343 2.967 4.042 8.607 6.002 12.528 3.277 6.593 3.64 7.184 4.74 7.72.672.323 1.195.82 1.195 1.115 0 .47-.577.524-5.545.524-4.982 0-5.546-.054-5.546-.537 0-.322.43-.671 1.114-.9.632-.201 1.115-.577 1.115-.859 0-.269-.658-2.041-1.464-3.934l-1.463-3.451H97.746l-1.06 2.336c-1.988 4.378-2.028 5.412-.175 5.908.927.255 1.182.457 1.074.873-.12.484-.604.55-4.095.55-3.747.028-3.948 0-3.948-.604zm18.181-10.863c.188-.335-3.988-9.453-4.377-9.547-.282-.08-4.606 8.836-4.606 9.507 0 .336 8.782.376 8.983.04z"/></svg>